<?xml version="1.0" encoding="UTF-8"?>
<svg width="97px" height="97px" viewBox="0 0 97 97" version="1.1" xmlns="http://www.w3.org/2000/svg" xmlns:xlink="http://www.w3.org/1999/xlink">
    <!-- Generator: sketchtool 42 (36781) - http://www.bohemiancoding.com/sketch -->
    <title>833ACBB4-84D9-4515-9AFF-876AAFF4EBD4</title>
    <desc>Created with sketchtool.</desc>
    <defs></defs>
    <g id="Telas" stroke="none" stroke-width="1" fill="none" fill-rule="evenodd">
        <g id="3.-Novo-procedimento---Buscar-paciente---sem-retorno" transform="translate(-625.000000, -430.000000)">
            <g id="Group-5-Copy" transform="translate(365.000000, 333.000000)">
                <rect id="Rectangle-8" fill="#F8F8F8" x="0" y="0" width="617" height="323"></rect>
                <g id="Group-3" transform="translate(260.000000, 97.000000)">
                    <path d="M24.5036407,69.4072175 L24.5036407,68.3103098 C24.5036407,63.1507831 28.6113516,58.9112368 33.7688853,58.732183 C34.1867988,58.7389302 34.6954337,58.7070228 35.3122007,58.5986575 L42.4700606,51.4407976 L42.4844438,51.3882009 L41.9550292,50.9835649 C38.6748723,48.4765139 36.3516934,44.2019319 35.6508353,39.1971251 L35.616753,38.9537449 L35.4727798,38.7545785 C35.2318733,38.4213187 34.787312,37.1877068 34.5468006,36.2447747 C32.6685192,28.8791507 36.1364683,21.4929536 42.1681886,19.7503134 C42.7490349,19.5821738 43.3555371,19.4692204 43.9765829,19.413501 L44.1566839,19.3973426 L44.3194351,19.3185424 C46.0366264,18.4871198 47.846505,18.067598 49.7125754,18.067598 C56.5748787,18.067598 62.2611581,23.7429083 62.9075892,31.003269 L71.7671483,22.1437099 L73.8665994,24.243161 L19.7524775,78.3572829 L17.6530264,76.2578318 L24.5036407,69.4072175 Z M58.0756909,35.8351673 C57.5914839,35.1407266 56.7881922,34.6848743 55.879083,34.6848743 L46.0986178,34.6848743 C44.8464916,34.6848743 43.6508394,34.3222615 42.6198556,33.632784 C41.7126584,35.4996595 40.4580602,37.1919789 38.9345925,38.6148582 C39.571308,43.3240796 41.9171433,47.2154013 44.9415614,48.9692968 L58.0756909,35.8351673 Z M31.084899,62.8259592 C30.0424392,63.399568 29.1802044,64.2618028 28.6065956,65.3042626 L31.0849008,62.8259574 Z M24.6922331,76.3865994 L27.8360197,73.2428129 L27.8360197,75.2170645 C27.8360197,75.4277488 28.0071531,75.5988822 28.2178373,75.5988822 L68.7810218,75.5988822 C68.9915159,75.5988822 69.1628395,75.4277488 69.1628395,75.2170645 L69.1630296,75.2170645 L69.1630296,68.3099295 C69.1630296,64.8612108 66.3573922,62.0555734 62.9088636,62.0555734 C62.8504881,62.0555734 60.8662912,62.0962651 58.7261727,61.2248157 C55.9473462,63.7562593 52.3046763,65.182181 48.508937,65.182181 C45.0867905,65.182181 41.7898165,64.0238345 39.1378011,61.9410314 L42.225833,58.8529995 C44.045441,60.1454885 46.2382271,60.8595409 48.5087468,60.8595409 C50.8198086,60.8597311 53.050818,60.1196741 54.8893614,58.7825516 C53.4596367,57.4321188 52.3601995,55.7323836 51.73233,53.8162597 C50.6895571,54.1281029 49.6108461,54.293722 48.5085567,54.293722 C47.965798,54.293722 47.4299109,54.2538485 46.9025487,54.1762838 L52.0791185,48.999714 C52.2573299,48.8978371 52.3646644,48.8263736 52.3904331,48.8140298 C53.6915175,48.0020804 54.8457016,46.7953587 55.7787672,45.3000653 L61.2758126,39.8030199 C60.7499839,42.9345819 59.5799283,45.7964861 57.8743931,48.1054568 C57.0336281,49.243897 56.0854461,50.214957 55.0510832,51.0050754 L54.5214336,51.4096586 L54.6972003,52.0525602 C55.3979854,54.6158209 56.8199898,56.4092369 58.7364139,57.5143078 C59.6738852,58.0548834 60.6706731,58.396625 61.6745495,58.5813333 C62.3137112,58.698936 62.8207397,58.7343332 63.2399107,58.7315959 C68.3848726,58.907238 72.4958441,63.1481994 72.4963593,68.3104086 L72.4963593,75.217635 C72.4963593,77.2650463 70.8290035,78.932402 68.7815922,78.932402 L28.2184078,78.932402 C26.579155,78.932402 25.1835311,77.8635688 24.6922331,76.3865994 Z M48.5,96.5 C21.990332,96.5 0.5,75.009668 0.5,48.5 C0.5,21.990332 21.990332,0.5 48.5,0.5 C75.009668,0.5 96.5,21.990332 96.5,48.5 C96.5,75.009668 75.009668,96.5 48.5,96.5 Z M48.5,93.5309278 C73.3698947,93.5309278 93.5309278,73.3698947 93.5309278,48.5 C93.5309278,23.6301053 73.3698947,3.46907216 48.5,3.46907216 C23.6301053,3.46907216 3.46907216,23.6301053 3.46907216,48.5 C3.46907216,73.3698947 23.6301053,93.5309278 48.5,93.5309278 Z M43.0931346,22.9523472 C39.148129,24.0920958 36.8209046,28.7731653 37.4683594,33.8096219 C38.44401,32.5099586 39.1692354,31.027753 39.5799556,29.4495226 C39.8520578,28.4057989 40.7571634,27.6590867 41.832832,27.5908235 C42.9058386,27.5225603 43.8923277,28.1466268 44.291639,29.1428135 C44.4243625,29.4736714 44.6472162,29.7625066 44.9356711,29.9779446 C45.2722335,30.2295107 45.6745872,30.3622342 46.0986178,30.3622342 L55.879083,30.3622342 C57.2441572,30.3622342 58.5181505,30.7562213 59.5961009,31.4344801 C59.1589501,25.8213039 54.8944954,21.4007375 49.7123852,21.4007375 C48.2488142,21.4007375 46.8234629,21.7597374 45.4756921,22.4676593 C45.1948432,22.6150242 44.8849015,22.6988796 44.5681146,22.7133308 C44.0577567,22.7367191 43.5614698,22.8169616 43.0931346,22.9523472 Z" id="Combined-Shape" fill="#D9D9D9" fill-rule="nonzero"></path>
                    <g id="Group-4" transform="translate(17.000000, 18.000000)"></g>
                </g>
            </g>
        </g>
    </g>
</svg>